<svg id="ey4ulgt5tp181" xmlns="http://www.w3.org/2000/svg" xmlns:xlink="http://www.w3.org/1999/xlink"
     viewBox="0 0 100 100" shape-rendering="geometricPrecision" text-rendering="geometricPrecision">
    <g id="ey4ulgt5tp182"
       transform="matrix(0.99995729733161 0.00924140212645 -0.00924140212645 0.99995729733161 0.46420523974217 -0.45993497290314)">
        <g id="ey4ulgt5tp183">
            <g id="ey4ulgt5tp184">
                <g id="ey4ulgt5tp185">
                    <path id="ey4ulgt5tp186"
                          d="M50.500000,7.500000C37.600000,7.500000,27.200000,26.200000,26.800000,49.500000L35.400000,49.500000C35.700000,26.200000,42.300000,7.500000,50.500000,7.500000Z"
                          fill="rgb(247,178,106)" stroke="none" stroke-width="1"/>
                </g>
            </g>
            <g id="ey4ulgt5tp187">
                <g id="ey4ulgt5tp188">
                    <path id="ey4ulgt5tp189"
                          d="M7.500000,49.500000C7.500000,62.400000,26.200000,72.800000,49.500000,73.200000L49.500000,64.600000C26.200000,64.300000,7.500000,57.700000,7.500000,49.500000Z"
                          fill="rgb(247,178,106)" stroke="none" stroke-width="1"/>
                </g>
            </g>
            <g id="ey4ulgt5tp1810">
                <g id="ey4ulgt5tp1811">
                    <path id="ey4ulgt5tp1812"
                          d="M40.900000,50L40.900000,49.500000L7.500000,49.500000C7.500000,57.700000,26.200000,64.400000,49.500000,64.600000L49.500000,59.200000L50,59.200000C45.100000,58.800000,41.200000,54.900000,40.900000,50Z"
                          fill="rgb(244,126,95)" stroke="none" stroke-width="1"/>
                </g>
            </g>
            <g id="ey4ulgt5tp1813">
                <g id="ey4ulgt5tp1814">
                    <path id="ey4ulgt5tp1815"
                          d="M64.500000,50.500000C64.300000,73.800000,57.600000,92.500000,49.400000,92.500000C62.300000,92.500000,72.700000,73.800000,73.100000,50.500000L64.500000,50.500000Z"
                          fill="rgb(247,178,106)" stroke="none" stroke-width="1"/>
                </g>
            </g>
            <g id="ey4ulgt5tp1816">
                <g id="ey4ulgt5tp1817">
                    <path id="ey4ulgt5tp1818"
                          d="M59.100000,50.500000L59.100000,50C58.800000,54.900000,54.900000,58.800000,50,59.100000L49.500000,59.100000L49.500000,92.500000C57.700000,92.500000,64.400000,73.800000,64.600000,50.500000L59.100000,50.500000Z"
                          fill="rgb(244,126,95)" stroke="none" stroke-width="1"/>
                </g>
            </g>
            <g id="ey4ulgt5tp1819">
                <g id="ey4ulgt5tp1820">
                    <path id="ey4ulgt5tp1821"
                          d="M92.500000,50.500000C92.500000,37.600000,73.800000,27.200000,50.500000,26.800000L50.500000,35.400000C73.800000,35.700000,92.500000,42.300000,92.500000,50.500000Z"
                          fill="rgb(247,178,106)" stroke="none" stroke-width="1"/>
                </g>
            </g>
            <g id="ey4ulgt5tp1822">
                <g id="ey4ulgt5tp1823">
                    <path id="ey4ulgt5tp1824"
                          d="M35.500000,49.500000L40.900000,49.500000L40.900000,50C41.200000,45.100000,45.100000,41.200000,50,40.900000L50.500000,40.900000L50.500000,7.500000C42.300000,7.500000,35.700000,26.200000,35.500000,49.500000Z"
                          fill="rgb(244,126,95)" stroke="none" stroke-width="1"/>
                </g>
            </g>
            <g id="ey4ulgt5tp1825">
                <g id="ey4ulgt5tp1826">
                    <path id="ey4ulgt5tp1827"
                          d="M50.500000,35.500000L50.500000,40.900000L50,40.900000C54.900000,41.200000,58.800000,45.100000,59.100000,50L59.100000,50.500000L92.500000,50.500000C92.500000,42.300000,73.800000,35.700000,50.500000,35.500000Z"
                          fill="rgb(244,126,95)" stroke="none" stroke-width="1"/>
                </g>
            </g>
        </g>
    </g>
</svg>